<?xml version="1.0" encoding="UTF-8" standalone="no"?>
<!-- Created with Inkscape (http://www.inkscape.org/) -->

<svg
   width="100.47736mm"
   height="26.458382mm"
   viewBox="0 0 100.47736 26.458382"
   version="1.1"
   id="svg1"
   xml:space="preserve"
   inkscape:version="1.3 (0e150ed6c4, 2023-07-21)"
   sodipodi:docname="nemote.svg"
   xmlns:inkscape="http://www.inkscape.org/namespaces/inkscape"
   xmlns:sodipodi="http://sodipodi.sourceforge.net/DTD/sodipodi-0.dtd"
   xmlns="http://www.w3.org/2000/svg"
   xmlns:svg="http://www.w3.org/2000/svg"><sodipodi:namedview
     id="namedview1"
     pagecolor="#ffffff"
     bordercolor="#666666"
     borderopacity="1.0"
     inkscape:showpageshadow="2"
     inkscape:pageopacity="0.0"
     inkscape:pagecheckerboard="0"
     inkscape:deskcolor="#d1d1d1"
     inkscape:document-units="mm"
     showguides="true"
     inkscape:zoom="2.7758979"
     inkscape:cx="291.61736"
     inkscape:cy="134.19082"
     inkscape:window-width="1920"
     inkscape:window-height="1017"
     inkscape:window-x="-8"
     inkscape:window-y="-8"
     inkscape:window-maximized="1"
     inkscape:current-layer="layer1"><sodipodi:guide
       position="-4.195138e-07,296.99995"
       orientation="0,-1"
       id="guide1"
       inkscape:locked="false" /><sodipodi:guide
       position="27.051042,270.54163"
       orientation="0,-1"
       id="guide2"
       inkscape:locked="false" /><sodipodi:guide
       position="9.3836736,283.77079"
       orientation="0,-1"
       id="guide6"
       inkscape:locked="false" /></sodipodi:namedview><defs
     id="defs1" /><g
     inkscape:label="Layer 1"
     inkscape:groupmode="layer"
     id="layer1"
     transform="translate(-33.910027,-10.790041)"><path
       id="polygon1-0"
       style="fill:#03cf5d;stroke-width:0.264583"
       class="st0"
       d="m 57.056715,10.790041 v 6.35517 h 4.53254 4.53926 c 1.50864,0 2.73435,1.19883 2.78381,2.69544 v 4.17856 4.2158 c -0.0495,1.49661 -0.01,2.69544 -1.51826,2.69544 -1.50864,0 -1.46879,-1.23655 -1.51825,-2.73316 v -4.17804 h -8.41912 v 3.82664 c 0,3.34222 1.21883,5.81521 3.62303,7.34942 1.93598,1.2355 3.10573,1.8977 6.31434,2.0531 3.20861,-0.1554 4.37837,-0.8176 6.31435,-2.0531 2.4042,-1.53421 3.62303,-4.0072 3.62303,-7.34942 v -3.82668 -3.78943 c 0,-3.34224 -1.21883,-5.81522 -3.62303,-7.34943 -2.23493,-1.42628 -5.13354,-2.09031 -9.12141,-2.09031 h -2.99775 z"
       sodipodi:nodetypes="cccscccscccscccscscscc"
       inkscape:export-filename="nemote-logo.svg"
       inkscape:export-xdpi="95"
       inkscape:export-ydpi="95" /><path
       id="path13"
       style="fill:#03cf5d;stroke-width:0.264583"
       class="st0"
       d="m 115.16582,10.790041 c -3.98786,0 -6.88648,0.66403 -9.12141,2.09031 -2.40419,1.53421 -3.62303,4.0072 -3.62303,7.34943 v 3.78943 3.78943 c 0,3.34222 1.21884,5.81522 3.62303,7.34942 2.23493,1.42628 5.13355,2.09031 9.12141,2.09031 h 0.64854 7.91166 l 10.66137,-13.22916 h -8.8191 l -1.84227,2.49855 v -15.72772 h -5.56245 z m -1.54151,6.35517 h 1.54151 v 13.748 h -1.54151 c -1.50863,0 -2.73431,-1.19884 -2.78381,-2.69545 v -4.17855 -4.17856 c 0.0495,-1.4966 1.27518,-2.69544 2.78381,-2.69544 z" /><path
       id="polygon1-0-9"
       style="fill:#03cf5d;stroke-width:0.264583"
       class="st0"
       d="m 78.849695,10.790041 c -3.2086,0.1554 -4.37837,0.81761 -6.31434,2.05311 -2.4042,1.5342 -3.62303,4.00721 -3.62303,7.34942 v 3.82664 3.82664 c 0,3.34221 1.21883,5.81522 3.62303,7.34942 1.93597,1.2355 3.10574,1.89771 6.31434,2.0531 2.86866,-0.13893 4.11087,-0.68644 5.72472,-1.6831 1.61403,0.9968 2.85637,1.54416 5.72523,1.6831 3.2086,-0.15539 4.37837,-0.8176 6.31435,-2.0531 2.40419,-1.5342 3.623025,-4.00721 3.623025,-7.34942 v -3.82664 -3.82664 c 0,-3.34221 -1.218835,-5.81522 -3.623025,-7.34942 -1.93598,-1.2355 -3.10575,-1.89771 -6.31435,-2.05311 -2.86886,0.13895 -4.1112,0.68631 -5.72523,1.6831 -1.61385,-0.99665 -2.85606,-1.54416 -5.72472,-1.6831 z m 0,6.31796 c 1.50866,0 1.4688,1.19884 1.51826,2.69544 v 0.14677 c -10e-4,0.0811 -0.006,0.16024 -0.006,0.24236 v 3.82664 3.82664 c 0,0.0821 0.004,0.16129 0.006,0.24236 v 0.14676 c -0.0495,1.49661 -0.01,2.69544 -1.51826,2.69544 -1.50863,0 -1.46879,-1.19883 -1.51825,-2.69544 v -4.21576 -4.21577 c 0.0495,-1.4966 0.01,-2.69544 1.51825,-2.69544 z m 11.44995,0 c 1.50865,0 1.4688,1.19884 1.51826,2.69544 v 4.21577 4.21576 c -0.0495,1.49661 -0.01,2.69544 -1.51826,2.69544 -1.50863,0 -1.46879,-1.19883 -1.51825,-2.69544 v -0.14676 c 10e-4,-0.0811 0.006,-0.16024 0.006,-0.24236 v -3.82664 -3.82664 c 0,-0.0821 -0.004,-0.1613 -0.006,-0.24236 v -0.14677 c 0.0495,-1.4966 0.01,-2.69544 1.51825,-2.69544 z" /><path
       id="polygon2-7"
       style="fill:#03cf5d;stroke-width:0.264583"
       class="st0"
       d="m 47.302872,37.248421 h 7.911663 l 10.66154,-13.22917 h -8.8191 z"
       sodipodi:nodetypes="ccccc" /><path
       id="path6"
       style="fill:#03cf5d;stroke-width:0.264583"
       class="st0"
       d="m 33.910027,10.790091 v 3.78943 c 0,3.34223 1.218826,5.81521 3.623035,7.34942 2.23493,1.42629 5.133536,2.09031 9.121407,2.09031 h 2.997746 v -6.74429 h -4.539254 c -1.508643,0 -2.73435,-1.19883 -2.783809,-2.69544 v -3.78943 z"
       sodipodi:nodetypes="cscsccsccc" /><rect
       style="fill:#03cf5d;fill-opacity:1;stroke:none;stroke-width:3;stroke-miterlimit:2.2;stroke-opacity:0.75;paint-order:stroke markers fill"
       id="rect2-1"
       width="8.5600643"
       height="26.458332"
       x="46.654465"
       y="10.790086" /></g><style
     type="text/css"
     id="style1">&#10;	.st0{fill:#03CF5D;}&#10;</style></svg>
